<svg viewBox="0 0 800 1200" xmlns="http://www.w3.org/2000/svg">
    <!-- Background -->
    <rect width="800" height="1200" fill="#f0f0f0"/>
    
    <!-- Navigation Bar -->
    <rect x="0" y="0" width="800" height="60" fill="#2c3e50"/>
    <rect x="20" y="15" width="120" height="30" fill="#ffffff" opacity="0.9"/>
    <circle cx="740" cy="30" r="15" fill="#ffffff" opacity="0.9"/>
    
    <!-- Changes Header -->
    <rect x="0" y="60" width="800" height="200" fill="#34495e"/>
    <rect x="200" y="140" width="400" height="40" fill="#ffffff" opacity="0.7"/>
    
    <!-- Content Size Controls -->
    <g transform="translate(50, 300)">
        <rect width="700" height="200" fill="#ffffff" rx="8"/>
        <rect x="20" y="20" width="660" height="40" fill="#ddd"/>
        
        <!-- Size Buttons -->
        <rect x="20" y="80" width="200" height="40" fill="#f8f9fa"/>
        
        <!-- Keyboard Shortcuts -->
        <rect x="240" y="80" width="200" height="40" fill="#f8f9fa"/>
        
        <!-- Size Dropdown -->
        <rect x="460" y="80" width="200" height="40" fill="#f8f9fa"/>
    </g>
    
    <!-- Changes Section (sekcia_zmena) -->
    <g transform="translate(50, 520)">
        <rect width="700" height="600" fill="#ffffff" rx="8"/>
        
        <!-- Accessibility Features -->
        <g transform="translate(20, 20)">
            <rect width="200" height="250" fill="#f8f9fa" rx="4"/>
            <rect x="10" y="10" width="180" height="30" fill="#ddd"/>
            <rect x="10" y="50" width="180" height="180" fill="#fff"/>
        </g>
        
        <!-- Design Improvements -->
        <g transform="translate(240, 20)">
            <rect width="200" height="250" fill="#f8f9fa" rx="4"/>
            <rect x="10" y="10" width="180" height="30" fill="#ddd"/>
            <rect x="10" y="50" width="180" height="180" fill="#fff"/>
        </g>
        
        <!-- Technical Enhancements -->
        <g transform="translate(460, 20)">
            <rect width="200" height="250" fill="#f8f9fa" rx="4"/>
            <rect x="10" y="10" width="180" height="30" fill="#ddd"/>
            <rect x="10" y="50" width="180" height="180" fill="#fff"/>
        </g>
        
        <!-- Breakpoints Section -->
        <g transform="translate(20, 290)">
            <rect width="660" height="290" fill="#f8f9fa" rx="4"/>
            <rect x="10" y="10" width="640" height="30" fill="#ddd"/>
            <rect x="10" y="50" width="640" height="220" fill="#fff"/>
        </g>
    </g>
    
    <!-- Footer -->
    <rect x="0" y="1160" width="800" height="40" fill="#2c3e50"/>
</svg>