<svg viewBox="0 0 800 1200" xmlns="http://www.w3.org/2000/svg">
    <!-- Background -->
    <rect width="800" height="1200" fill="#f0f0f0"/>
    
    <!-- Navigation Bar -->
    <rect x="0" y="0" width="800" height="60" fill="#2c3e50"/>
    <rect x="20" y="15" width="120" height="30" fill="#ffffff" opacity="0.9"/>
    <circle cx="740" cy="30" r="15" fill="#ffffff" opacity="0.9"/>
    
    <!-- Comparison Header -->
    <rect x="0" y="60" width="800" height="200" fill="#34495e"/>
    <rect x="200" y="140" width="400" height="40" fill="#ffffff" opacity="0.7"/>
    
    <!-- GPU Selection Area -->
    <g transform="translate(50, 300)">
        <!-- GPU 1 Selection -->
        <rect width="340" height="200" fill="#ffffff" rx="8"/>
        <rect x="20" y="20" width="300" height="40" fill="#ddd"/>
        <rect x="20" y="80" width="300" height="100" fill="#f8f9fa"/>
    </g>
    
    <g transform="translate(410, 300)">
        <!-- GPU 2 Selection -->
        <rect width="340" height="200" fill="#ffffff" rx="8"/>
        <rect x="20" y="20" width="300" height="40" fill="#ddd"/>
        <rect x="20" y="80" width="300" height="100" fill="#f8f9fa"/>
    </g>
    
    <!-- Specifications Table -->
    <g transform="translate(50, 520)">
        <rect width="700" height="300" fill="#ffffff" rx="8"/>
        <rect x="20" y="20" width="660" height="260" fill="#f8f9fa"/>
        <!-- Table Headers -->
        <rect x="20" y="20" width="160" height="30" fill="#ddd"/>
        <rect x="180" y="20" width="160" height="30" fill="#ddd"/>
        <rect x="340" y="20" width="160" height="30" fill="#ddd"/>
        <rect x="500" y="20" width="180" height="30" fill="#ddd"/>
    </g>
    
    <!-- Performance Charts -->
    <g transform="translate(50, 840)">
        <!-- 4K Performance -->
        <rect width="340" height="300" fill="#ffffff" rx="8"/>
        <rect x="20" y="20" width="300" height="260" fill="#f8f9fa"/>
    </g>
    
    <g transform="translate(410, 840)">
        <!-- 1440p Performance -->
        <rect width="340" height="300" fill="#ffffff" rx="8"/>
        <rect x="20" y="20" width="300" height="260" fill="#f8f9fa"/>
    </g>
    
    <!-- Footer -->
    <rect x="0" y="1160" width="800" height="40" fill="#2c3e50"/>
</svg>