<svg viewBox="0 0 800 1200" xmlns="http://www.w3.org/2000/svg">
    <!-- Background -->
    <rect width="800" height="1200" fill="#f0f0f0"/>
    
    <!-- Navigation Bar -->
    <rect x="0" y="0" width="800" height="60" fill="#2c3e50"/>
    <rect x="20" y="15" width="120" height="30" fill="#ffffff" opacity="0.9"/>
    <circle cx="740" cy="30" r="15" fill="#ffffff" opacity="0.9"/>
    
    <!-- Hero Section -->
    <rect x="0" y="60" width="800" height="300" fill="#34495e"/>
    <rect x="200" y="160" width="400" height="40" fill="#ffffff" opacity="0.7"/>
    <rect x="250" y="220" width="300" height="20" fill="#ffffff" opacity="0.5"/>
    
    <!-- GPU Grid -->
    <g transform="translate(50, 400)">
        <!-- GPU Card 1 -->
        <rect width="220" height="280" fill="#ffffff" rx="8"/>
        <rect x="20" y="20" width="180" height="120" fill="#ddd"/>
        <rect x="20" y="160" width="180" height="20" fill="#ddd"/>
        <rect x="20" y="190" width="140" height="15" fill="#ddd"/>
        <rect x="20" y="230" width="80" height="30" fill="#3498db"/>
    </g>
    
    <g transform="translate(290, 400)">
        <!-- GPU Card 2 -->
        <rect width="220" height="280" fill="#ffffff" rx="8"/>
        <rect x="20" y="20" width="180" height="120" fill="#ddd"/>
        <rect x="20" y="160" width="180" height="20" fill="#ddd"/>
        <rect x="20" y="190" width="140" height="15" fill="#ddd"/>
        <rect x="20" y="230" width="80" height="30" fill="#3498db"/>
    </g>
    
    <g transform="translate(530, 400)">
        <!-- GPU Card 3 -->
        <rect width="220" height="280" fill="#ffffff" rx="8"/>
        <rect x="20" y="20" width="180" height="120" fill="#ddd"/>
        <rect x="20" y="160" width="180" height="20" fill="#ddd"/>
        <rect x="20" y="190" width="140" height="15" fill="#ddd"/>
        <rect x="20" y="230" width="80" height="30" fill="#3498db"/>
    </g>
    
    <!-- Features Section -->
    <rect x="0" y="720" width="800" height="400" fill="#ffffff"/>
    <rect x="200" y="750" width="400" height="40" fill="#ddd"/>
    
    <!-- Feature Cards -->
    <g transform="translate(50, 820)">
        <rect width="220" height="200" fill="#f8f9fa" rx="8"/>
        <rect x="20" y="20" width="180" height="20" fill="#ddd"/>
        <rect x="20" y="60" width="180" height="100" fill="#ddd"/>
    </g>
    
    <g transform="translate(290, 820)">
        <rect width="220" height="200" fill="#f8f9fa" rx="8"/>
        <rect x="20" y="20" width="180" height="20" fill="#ddd"/>
        <rect x="20" y="60" width="180" height="100" fill="#ddd"/>
    </g>
    
    <g transform="translate(530, 820)">
        <rect width="220" height="200" fill="#f8f9fa" rx="8"/>
        <rect x="20" y="20" width="180" height="20" fill="#ddd"/>
        <rect x="20" y="60" width="180" height="100" fill="#ddd"/>
    </g>
    
    <!-- Footer -->
    <rect x="0" y="1160" width="800" height="40" fill="#2c3e50"/>
</svg>