<svg viewBox="0 0 1000 800" xmlns="http://www.w3.org/2000/svg">
    <!-- Background -->
    <rect width="1000" height="800" fill="#f8f9fa"/>
    
    <!-- Title -->
    <text x="500" y="50" text-anchor="middle" font-size="24" fill="#2c3e50" font-weight="bold">GPU Comparison Website Structure</text>
    
    <!-- Main Pages -->
    <g transform="translate(200, 100)">
        <!-- Home Page -->
        <rect x="0" y="0" width="160" height="80" rx="8" fill="#3498db"/>
        <text x="80" y="45" text-anchor="middle" fill="white" font-weight="bold">Home Page</text>
        
        <!-- Compare Page -->
        <rect x="300" y="0" width="160" height="80" rx="8" fill="#3498db"/>
        <text x="380" y="45" text-anchor="middle" fill="white" font-weight="bold">Compare GPUs</text>
        
        <!-- Changes Page -->
        <rect x="600" y="0" width="160" height="80" rx="8" fill="#3498db"/>
        <text x="680" y="45" text-anchor="middle" fill="white" font-weight="bold">Changes</text>
        
        <!-- Connection Lines -->
        <line x1="160" y1="40" x2="300" y2="40" stroke="#2c3e50" stroke-width="2"/>
        <line x1="460" y1="40" x2="600" y2="40" stroke="#2c3e50" stroke-width="2"/>
    </g>
    
    <!-- Components -->
    <!-- Home Components -->
    <g transform="translate(140, 250)">
        <rect x="0" y="0" width="280" height="200" rx="8" fill="#ecf0f1" stroke="#bdc3c7" stroke-width="2"/>
        <text x="140" y="30" text-anchor="middle" fill="#2c3e50" font-weight="bold">Home Components</text>
        
        <rect x="20" y="50" width="240" height="30" rx="4" fill="#e74c3c"/>
        <text x="140" y="70" text-anchor="middle" fill="white">Hero Section</text>
        
        <rect x="20" y="90" width="240" height="30" rx="4" fill="#e74c3c"/>
        <text x="140" y="110" text-anchor="middle" fill="white">GPU Grid</text>
        
        <rect x="20" y="130" width="240" height="30" rx="4" fill="#e74c3c"/>
        <text x="140" y="150" text-anchor="middle" fill="white">Features Section</text>
    </g>
    
    <!-- Compare Components -->
    <g transform="translate(440, 250)">
        <rect x="0" y="0" width="280" height="200" rx="8" fill="#ecf0f1" stroke="#bdc3c7" stroke-width="2"/>
        <text x="140" y="30" text-anchor="middle" fill="#2c3e50" font-weight="bold">Compare Components</text>
        
        <rect x="20" y="50" width="240" height="30" rx="4" fill="#e67e22"/>
        <text x="140" y="70" text-anchor="middle" fill="white">GPU Selection</text>
        
        <rect x="20" y="90" width="240" height="30" rx="4" fill="#e67e22"/>
        <text x="140" y="110" text-anchor="middle" fill="white">Specs Comparison</text>
        
        <rect x="20" y="130" width="240" height="30" rx="4" fill="#e67e22"/>
        <text x="140" y="150" text-anchor="middle" fill="white">Performance Charts</text>
    </g>
    
    <!-- Changes Components -->
    <g transform="translate(740, 250)">
        <rect x="0" y="0" width="280" height="200" rx="8" fill="#ecf0f1" stroke="#bdc3c7" stroke-width="2"/>
        <text x="140" y="30" text-anchor="middle" fill="#2c3e50" font-weight="bold">Changes Components</text>
        
        <rect x="20" y="50" width="240" height="30" rx="4" fill="#27ae60"/>
        <text x="140" y="70" text-anchor="middle" fill="white">Size Controls</text>
        
        <rect x="20" y="90" width="240" height="30" rx="4" fill="#27ae60"/>
        <text x="140" y="110" text-anchor="middle" fill="white">Accessibility Features</text>
        
        <rect x="20" y="130" width="240" height="30" rx="4" fill="#27ae60"/>
        <text x="140" y="150" text-anchor="middle" fill="white">UI/UX Improvements</text>
    </g>
    
    <!-- Shared Components -->
    <g transform="translate(200, 500)">
        <rect x="0" y="0" width="600" height="160" rx="8" fill="#ecf0f1" stroke="#bdc3c7" stroke-width="2"/>
        <text x="300" y="30" text-anchor="middle" fill="#2c3e50" font-weight="bold">Shared Components</text>
        
        <rect x="20" y="50" width="160" height="30" rx="4" fill="#9b59b6"/>
        <text x="100" y="70" text-anchor="middle" fill="white">Navigation</text>
        
        <rect x="220" y="50" width="160" height="30" rx="4" fill="#9b59b6"/>
        <text x="300" y="70" text-anchor="middle" fill="white">Theme Switcher</text>
        
        <rect x="420" y="50" width="160" height="30" rx="4" fill="#9b59b6"/>
        <text x="500" y="70" text-anchor="middle" fill="white">Footer</text>
        
        <rect x="20" y="100" width="560" height="30" rx="4" fill="#9b59b6"/>
        <text x="300" y="120" text-anchor="middle" fill="white">Responsive Layout (550px, 850px, 1250px, 1400px)</text>
    </g>
    
    <!-- Connection Lines from Pages to Components -->
    <g stroke="#2c3e50" stroke-width="2" stroke-dasharray="5,5">
        <line x1="280" y1="180" x2="280" y2="250"/>
        <line x1="580" y1="180" x2="580" y2="250"/>
        <line x1="880" y1="180" x2="880" y2="250"/>
        
        <line x1="280" y1="450" x2="280" y2="500"/>
        <line x1="580" y1="450" x2="580" y2="500"/>
        <line x1="880" y1="450" x2="880" y2="500"/>
    </g>
</svg>