<svg viewBox="0 0 800 600" xmlns="http://www.w3.org/2000/svg">
    <!-- Background -->
    <rect width="800" height="600" fill="#f8f9fa"/>
    
    <!-- Title -->
    <text x="400" y="50" text-anchor="middle" font-size="24" fill="#2c3e50" font-weight="bold">GPU Comparison Website Structure</text>
    
    <!-- Main Pages -->
    <g transform="translate(50, 80)">
        <!-- Home Page -->
        <rect x="50" y="0" width="180" height="60" rx="8" fill="#3498db"/>
        <text x="140" y="35" text-anchor="middle" fill="white" font-weight="bold">Home Page</text>
        
        <!-- Compare Page -->
        <rect x="280" y="0" width="180" height="60" rx="8" fill="#3498db"/>
        <text x="370" y="35" text-anchor="middle" fill="white" font-weight="bold">Compare GPUs</text>
        
        <!-- Changes Page -->
        <rect x="510" y="0" width="180" height="60" rx="8" fill="#3498db"/>
        <text x="600" y="35" text-anchor="middle" fill="white" font-weight="bold">Changes</text>
        
        <!-- Connection Lines -->
        <line x1="230" y1="30" x2="280" y2="30" stroke="#2c3e50" stroke-width="2"/>
        <line x1="460" y1="30" x2="510" y2="30" stroke="#2c3e50" stroke-width="2"/>
    </g>
    
    <!-- Component Groups -->
    <g transform="translate(50, 200)">
        <!-- Home Components -->
        <g transform="translate(50, 0)">
            <rect x="0" y="0" width="180" height="180" rx="8" fill="#ecf0f1" stroke="#bdc3c7" stroke-width="2"/>
            <text x="90" y="30" text-anchor="middle" font-weight="bold">Home Components</text>
            
            <rect x="20" y="50" width="140" height="30" rx="4" fill="#e74c3c"/>
            <text x="90" y="70" text-anchor="middle" fill="white">Hero Section</text>
            
            <rect x="20" y="90" width="140" height="30" rx="4" fill="#e74c3c"/>
            <text x="90" y="110" text-anchor="middle" fill="white">GPU Grid</text>
            
            <rect x="20" y="130" width="140" height="30" rx="4" fill="#e74c3c"/>
            <text x="90" y="150" text-anchor="middle" fill="white">Features Section</text>
        </g>
        
        <!-- Compare Components -->
        <g transform="translate(280, 0)">
            <rect x="0" y="0" width="180" height="180" rx="8" fill="#ecf0f1" stroke="#bdc3c7" stroke-width="2"/>
            <text x="90" y="30" text-anchor="middle" font-weight="bold">Compare Components</text>
            
            <rect x="20" y="50" width="140" height="30" rx="4" fill="#e67e22"/>
            <text x="90" y="70" text-anchor="middle" fill="white">GPU Selection</text>
            
            <rect x="20" y="90" width="140" height="30" rx="4" fill="#e67e22"/>
            <text x="90" y="110" text-anchor="middle" fill="white">Specs Comparison</text>
            
            <rect x="20" y="130" width="140" height="30" rx="4" fill="#e67e22"/>
            <text x="90" y="150" text-anchor="middle" fill="white">Performance Charts</text>
        </g>
        
        <!-- Changes Components -->
        <g transform="translate(510, 0)">
            <rect x="0" y="0" width="180" height="180" rx="8" fill="#ecf0f1" stroke="#bdc3c7" stroke-width="2"/>
            <text x="90" y="30" text-anchor="middle" font-weight="bold">Changes Components</text>
            
            <rect x="20" y="50" width="140" height="30" rx="4" fill="#27ae60"/>
            <text x="90" y="70" text-anchor="middle" fill="white">Size Controls</text>
            
            <rect x="20" y="90" width="140" height="30" rx="4" fill="#27ae60"/>
            <text x="90" y="110" text-anchor="middle" fill="white">Accessibility</text>
            
            <rect x="20" y="130" width="140" height="30" rx="4" fill="#27ae60"/>
            <text x="90" y="150" text-anchor="middle" fill="white">UI/UX Improvements</text>
        </g>
    </g>
    
    <!-- Shared Components -->
    <g transform="translate(100, 450)">
        <rect x="0" y="0" width="600" height="120" rx="8" fill="#ecf0f1" stroke="#bdc3c7" stroke-width="2"/>
        <text x="300" y="30" text-anchor="middle" font-weight="bold">Shared Components</text>
        
        <rect x="20" y="45" width="160" height="30" rx="4" fill="#9b59b6"/>
        <text x="100" y="65" text-anchor="middle" fill="white">Navigation</text>
        
        <rect x="220" y="45" width="160" height="30" rx="4" fill="#9b59b6"/>
        <text x="300" y="65" text-anchor="middle" fill="white">Theme Switcher</text>
        
        <rect x="420" y="45" width="160" height="30" rx="4" fill="#9b59b6"/>
        <text x="500" y="65" text-anchor="middle" fill="white">Footer</text>
        
        <rect x="20" y="80" width="560" height="30" rx="4" fill="#9b59b6"/>
        <text x="300" y="100" text-anchor="middle" fill="white">Responsive Layout (550px, 850px, 1250px, 1400px)</text>
    </g>
    
    <!-- Connection Lines -->
    <g stroke="#2c3e50" stroke-width="2" stroke-dasharray="5,5">
        <!-- Vertical lines from pages to components -->
        <line x1="140" y1="140" x2="140" y2="200"/>
        <line x1="370" y1="140" x2="370" y2="200"/>
        <line x1="600" y1="140" x2="600" y2="200"/>
        
        <!-- Vertical lines from components to shared -->
        <line x1="140" y1="380" x2="140" y2="450"/>
        <line x1="370" y1="380" x2="370" y2="450"/>
        <line x1="600" y1="380" x2="600" y2="450"/>
    </g>
</svg>